FDS_states
version=1
nRows=4
nColumns=142
inDegrees=yes

# SIMM Motion File Header:
name FDS_states
datacolumns 142
datarows 4
otherdata 1
range 2.40950675010063397607 2.41195665682413373787
endheader
time	/jointset/groundthorax/r_z/value	/jointset/groundthorax/r_z/speed	/jointset/sternoclavicular/sternoclavicular_r2/value	/jointset/sternoclavicular/sternoclavicular_r2/speed	/jointset/sternoclavicular/sternoclavicular_r3/value	/jointset/sternoclavicular/sternoclavicular_r3/speed	/jointset/unrotscap/unrotscap_r3/value	/jointset/unrotscap/unrotscap_r3/speed	/jointset/unrotscap/unrotscap_r2/value	/jointset/unrotscap/unrotscap_r2/speed	/jointset/acromioclavicular/acromioclavicular_r2/value	/jointset/acromioclavicular/acromioclavicular_r2/speed	/jointset/acromioclavicular/acromioclavicular_r3/value	/jointset/acromioclavicular/acromioclavicular_r3/speed	/jointset/acromioclavicular/acromioclavicular_r1/value	/jointset/acromioclavicular/acromioclavicular_r1/speed	/jointset/unrothum/unrothum_r1/value	/jointset/unrothum/unrothum_r1/speed	/jointset/unrothum/unrothum_r3/value	/jointset/unrothum/unrothum_r3/speed	/jointset/unrothum/unrothum_r2/value	/jointset/unrothum/unrothum_r2/speed	/jointset/shoulder0/elv_angle/value	/jointset/shoulder0/elv_angle/speed	/jointset/shoulder1/shoulder_elv/value	/jointset/shoulder1/shoulder_elv/speed	/jointset/shoulder1/shoulder1_r2/value	/jointset/shoulder1/shoulder1_r2/speed	/jointset/shoulder2/shoulder_rot/value	/jointset/shoulder2/shoulder_rot/speed	/jointset/elbow/elbow_flexion/value	/jointset/elbow/elbow_flexion/speed	/jointset/radioulnar/pro_sup/value	/jointset/radioulnar/pro_sup/speed	/jointset/radiocarpal/deviation/value	/jointset/radiocarpal/deviation/speed	/jointset/radiocarpal/flexion/value	/jointset/radiocarpal/flexion/speed	/jointset/wrist_hand/wrist_hand_r1/value	/jointset/wrist_hand/wrist_hand_r1/speed	/jointset/wrist_hand/wrist_hand_r3/value	/jointset/wrist_hand/wrist_hand_r3/speed	/forceset/DELT1/activation	/forceset/DELT1/fiber_length	/forceset/DELT2/activation	/forceset/DELT2/fiber_length	/forceset/DELT3/activation	/forceset/DELT3/fiber_length	/forceset/SUPSP/activation	/forceset/SUPSP/fiber_length	/forceset/INFSP/activation	/forceset/INFSP/fiber_length	/forceset/SUBSC/activation	/forceset/SUBSC/fiber_length	/forceset/TMIN/activation	/forceset/TMIN/fiber_length	/forceset/TMAJ/activation	/forceset/TMAJ/fiber_length	/forceset/PECM1/activation	/forceset/PECM2/activation	/forceset/PECM2/fiber_length	/forceset/PECM3/activation	/forceset/PECM3/fiber_length	/forceset/LAT1/activation	/forceset/LAT1/fiber_length	/forceset/LAT2/activation	/forceset/LAT2/fiber_length	/forceset/LAT3/activation	/forceset/LAT3/fiber_length	/forceset/CORB/activation	/forceset/CORB/fiber_length	/forceset/TRIlong/activation	/forceset/TRIlong/fiber_length	/forceset/TRIlat/activation	/forceset/TRIlat/fiber_length	/forceset/TRImed/activation	/forceset/TRImed/fiber_length	/forceset/ANC/activation	/forceset/ANC/fiber_length	/forceset/SUP/activation	/forceset/SUP/fiber_length	/forceset/BIClong/activation	/forceset/BIClong/fiber_length	/forceset/BICshort/activation	/forceset/BICshort/fiber_length	/forceset/BRA/activation	/forceset/BRA/fiber_length	/forceset/BRD/activation	/forceset/BRD/fiber_length	/forceset/ECRL/activation	/forceset/ECRL/fiber_length	/forceset/ECRB/activation	/forceset/ECRB/fiber_length	/forceset/ECU/activation	/forceset/ECU/fiber_length	/forceset/FCR/activation	/forceset/FCR/fiber_length	/forceset/FCU/activation	/forceset/FCU/fiber_length	/forceset/PL/activation	/forceset/PL/fiber_length	/forceset/PT/activation	/forceset/PT/fiber_length	/forceset/PQ/activation	/forceset/PQ/fiber_length	/forceset/FDSL/activation	/forceset/FDSL/fiber_length	/forceset/FDSR/activation	/forceset/FDSR/fiber_length	/forceset/FDSM/activation	/forceset/FDSM/fiber_length	/forceset/FDSI/activation	/forceset/FDSI/fiber_length	/forceset/FDPL/activation	/forceset/FDPL/fiber_length	/forceset/FDPR/activation	/forceset/FDPR/fiber_length	/forceset/FDPM/activation	/forceset/FDPM/fiber_length	/forceset/FDPI/activation	/forceset/FDPI/fiber_length	/forceset/EDCL/activation	/forceset/EDCL/fiber_length	/forceset/EDCR/activation	/forceset/EDCR/fiber_length	/forceset/EDCM/activation	/forceset/EDCM/fiber_length	/forceset/EDCI/activation	/forceset/EDCI/fiber_length	/forceset/EDM/activation	/forceset/EDM/fiber_length	/forceset/EIP/activation	/forceset/EIP/fiber_length	/forceset/EPL/activation	/forceset/EPL/fiber_length	/forceset/EPB/activation	/forceset/EPB/fiber_length	/forceset/FPL/activation	/forceset/FPL/fiber_length	/forceset/APL/activation	/forceset/APL/fiber_length
      2.40950675010063397607	     10.00000027620123255190	      0.00000000131068673618	    -11.73737817464507493526	      0.66029075498387845844	      4.97139942071732754414	     -0.27966799978344203392	     -4.97139942071584961525	      0.27966799978608825050	     11.73737817464828836478	     -0.66029075498057965277	     -2.37658032372915473118	      0.13369544653495932240	     19.20668619930075848856	     -1.08047957070339251118	      8.63327326202002609534	     -0.48566813093448629735	     -8.63327326202031741786	      0.48566813093516331135	    -19.20668619930109599636	      1.08047957070266376078	      2.37658032372824479239	     -0.13369544653568699033	     71.20418436770818004788	      1.43344318172649476395	     48.50145399757911945926	     -2.72846807876630803591	    -71.20418436770881953635	     -1.43344318172684359602	      7.41119050311700444666	    -11.74111393897592314772	     22.72995428755443825253	      2.40565078362858253413	     21.79951141151635241044	      9.45958573623288323517	      0.00000000137482295684	      0.00000000000471388181	      0.00000000000971465669	      0.00000000001146286345	      0.00000010607796490896	     -0.00000000061599473377	      0.00000000042667711816	      0.00000000048061156259	      0.18323910712037433379	      0.08898371538807618719	      0.25572013720253455871	      0.08451816620539588654	      0.02200000322735891703	      0.14178650212971877220	      0.06049510538623469741	      0.06757298367787897830	      0.16812807167742563341	      0.07604731129888772645	      0.02000021849392905060	      0.08170972285387778644	      0.09106780223860244661	      0.06575256826235760521	      0.03468633508130918724	      0.14867886847312317133	      0.02000000002579527258	      0.02000000002757595235	      0.10016335075448938585	      0.02000000002820572637	      0.08188589085765664299	      0.02000000350585537032	      0.18829042928994108030	      0.02000000811376554527	      0.15963061914156140286	      0.02000000223835820060	      0.22574824400132234570	      0.02000000000954701984	      0.06773466483671430893	      0.02000000313724017986	      0.16512832192456536329	      0.02000000000672557537	      0.07946852408627978759	      0.02000000000706129988	      0.07447968635116147817	      0.02000358481683332801	      0.01241968522015890128	      0.02000000000000000042	      0.03613033820417365510	      0.03525753146801795940	      0.14495303961483038679	      0.02000000000000000042	      0.16356797802158831723	      0.16177444468072446626	      0.08731571481697616988	      0.06421410046422382223	      0.19154465370306414385	      0.05943563121878598504	      0.08582514825336173825	      0.07629249515509528567	      0.06115124837798550927	      0.07978147363876333942	      0.06323102399358339343	      0.02000000000000000042	      0.06369237128381856350	      0.02000000000000000042	      0.04540688646874407181	      0.02000000000000000042	      0.06427938191085191821	      0.11858637780338211754	      0.05279014163454831543	      0.03231804565962143050	      0.02377339649223719070	      0.02000000000000000042	      0.04883524155278819862	      0.02000000000000000042	      0.07037298007929083943	      0.02000000000000000042	      0.07193201513229476041	      0.02000000000000000042	      0.08414754063939364204	      0.02000000000000000042	      0.07374536315712452994	      0.02000000000000000042	      0.07760001757564805036	      0.02000000000000000042	      0.07380159782724547701	      0.02000000000000000042	      0.07333017151535746458	      0.02000000000000000042	      0.07579836708990800309	      0.06152065234708405800	      0.06252539126195934271	      0.04496399939338779905	      0.07519745884235125299	      0.03102389911195116076	      0.06933852571811589816	      0.02831270539551005924	      0.07370926913284804594	      0.02000000000000000042	      0.06547478223442883272	      0.02000000000000000042	      0.06217611703727214667	      0.02000000000000000042	      0.06753198956558896515	      0.02000000000000000042	      0.05937130263643606437	      0.02000000000000000042	      0.07026600938848014122
      2.41022438018749252109	     10.00000027620217402102	      0.00000000131229378099	    -11.73690525650920335465	      0.65773559550241300631	      4.97119911491549437699	     -0.27858575482405562029	     -4.97119911491401378356	      0.27858575482669800660	     11.73690525651241856053	     -0.65773559549920357359	     -2.37648456742653690910	      0.13317807871586898050	     19.20591233054586766116	     -1.07629838597718974214	      8.63292541334063656677	     -0.48378871717588739498	     -8.63292541334092788929	      0.48378871717654209350	    -19.20591233054620516896	      1.07629838597645521858	      2.37648456742562652622	     -0.13317807871655487628	     71.20520219716776466612	      1.40326860821184551398	     48.49949979478609662920	     -2.71790959217726246777	    -71.20520219716838994373	     -1.40326860821221766074	      7.40284192843072208490	    -11.52809348855505966469	     22.73168903417646191656	      2.42932976072180650817	     21.80644847956996912330	      9.86825653053524831648	      0.00000000137482634373	      0.00000000000472543268	      0.00000000000972288419	      0.00000000001147565595	      0.00000010607752281025	     -0.00000000061695339205	      0.00000000042702210817	      0.00000000048121476549	      0.18318263995991401760	      0.08898567510363097899	      0.25504710562142507424	      0.08452164968328944317	      0.02200000319664463869	      0.14178531965458163189	      0.06048989580818057987	      0.06757456937379981154	      0.16838263253786167617	      0.07604416122555331115	      0.02000021642620286588	      0.08171260569558121134	      0.09026151028427985279	      0.06575340767343404447	      0.03454305582139498287	      0.14867787713752789180	      0.02000000002555115883	      0.02000000002731498749	      0.10016427001111001538	      0.02000000002793880099	      0.08188616524775053918	      0.02000000347267758688	      0.18829097236840339202	      0.02000000803698064045	      0.15963092396839875797	      0.02000000221717541937	      0.22574836049505014879	      0.02000000000945667197	      0.06773422678477418468	      0.02000000310755079697	      0.16512760066425996586	      0.02000000000666192837	      0.07946922605460396416	      0.02000000000699447486	      0.07448038444681337467	      0.02000355089145328460	      0.01241962806114595141	      0.02000000000000000042	      0.03613113615284423152	      0.03525245893391168450	      0.14495521035142044930	      0.02000000000000000042	      0.16356852376404168448	      0.16175800260791575735	      0.08731541645347298819	      0.06417774443663183670	      0.19154439106482867849	      0.05941050419379407393	      0.08582553908722456715	      0.07607985893398055977	      0.06115382736414951004	      0.07948311923984600902	      0.06323498675358864285	      0.02000000000000000042	      0.06369207430840387318	      0.02000000000000000042	      0.04540680323298346144	      0.02000000000000000042	      0.06427909416387976582	      0.11856025265886457887	      0.05278867018222997004	      0.03231474025100277564	      0.02377250514802172615	      0.02000000000000000042	      0.04883508760651139591	      0.02000000000000000042	      0.07037272859065027419	      0.02000000000000000042	      0.07193175146888731997	      0.02000000000000000042	      0.08414724608046950105	      0.02000000000000000042	      0.07374519655263001017	      0.02000000000000000042	      0.07759984171205779047	      0.02000000000000000042	      0.07380136890328038712	      0.02000000000000000042	      0.07332989279681789707	      0.02000000000000000042	      0.07579860831897776430	      0.06137138188884219692	      0.06252815239495992938	      0.04491378132032458614	      0.07519865175952117342	      0.03101996092071261646	      0.06933891670869644919	      0.02830796640118963051	      0.07370962481454530757	      0.02000000000000000042	      0.06547481028471494047	      0.02000000000000000042	      0.06217631140788900529	      0.02000000000000000042	      0.06753198956558899291	      0.02000000000000000042	      0.05937130263643606437	      0.02000000000000000042	      0.07026600938848012734
      2.41109051850581312948	     10.00000027620331088940	      0.00000000131457894937	    -11.73633682535548672377	      0.65486488346188287402	      4.97095835430727106541	     -0.27736985669387564934	     -4.97095835430578780745	      0.27736985669654701248	     11.73633682535870548236	     -0.65486488345862170490	     -2.37636947168069045944	      0.13259681792244512599	     19.20498216721356854464	     -1.07160084070679961776	      8.63250731132435689119	     -0.48167720290631377278	     -8.63250731132464821371	      0.48167720290696403040	    -19.20498216721390960515	      1.07160084070603511819	      2.37636947167977963247	     -0.13259681792311386883	     71.20640203899077391725	      1.36738302719607696112	     48.49715091098576635886	     -2.70604717231641700437	    -71.20640203899141340571	     -1.36738302719644333472	      7.39296299357748676329	    -11.28608191861281362378	     22.73380623654696108815	      2.45982553819293814357	     21.81519110315909770748	     10.31000370369874197252	      0.00000000137483044677	      0.00000000000474332703	      0.00000000000973283448	      0.00000000001149288384	      0.00000010607698848191	     -0.00000000061685066371	      0.00000000042743899478	      0.00000000048120918242	      0.18311309516917695372	      0.08898801349577641073	      0.25497748746684573140	      0.08452588013698845992	      0.02200000315996330710	      0.14178391090447897693	      0.06051878806461733623	      0.06757643148756928286	      0.16862084371462418564	      0.07604049620366380713	      0.02000021395662023027	      0.08171601302650056964	      0.08930252339384604776	      0.06575445713285595073	      0.03440005563781696474	      0.14867856424573172580	      0.02000000002525960038	      0.02000000002700330279	      0.10016534538046860392	      0.02000000002762000045	      0.08188647171686845583	      0.02000000343305179812	      0.18829159703406117554	      0.02000000794527281509	      0.15963125885611412214	      0.02000000219187582709	      0.22574846859944280864	      0.02000000000934876523	      0.06773370221674766822	      0.02000000307209136990	      0.16512675835818363401	      0.02000000000658590932	      0.07947008007711230115	      0.02000000000691466370	      0.07448123420437535724	      0.02000351037278423616	      0.01241955911173748574	      0.02000000000000000042	      0.03613214769742265076	      0.03526930603302882994	      0.14495782520910258095	      0.02000000000000000042	      0.16356921966965559667	      0.16174293626380822908	      0.08731505371448251840	      0.06415757016474350760	      0.19154404114274270476	      0.05956015201719761648	      0.08582590648524672516	      0.07631394300111013496	      0.06115690054259338010	      0.07992949971890733751	      0.06323967408400800461	      0.02000000000000000042	      0.06369171460838887744	      0.02000000000000000042	      0.04540670073459396328	      0.02000000000000000042	      0.06427874587825635477	      0.11852765303320868251	      0.05278692943299181928	      0.03231149942787402141	      0.02377137919196040117	      0.02000000000000000042	      0.04883489786687746775	      0.02000000000000000042	      0.07037242350802071222	      0.02000000000000000042	      0.07193143505678295524	      0.02000000000000000042	      0.08414689069947618727	      0.02000000000000000042	      0.07374499637272730057	      0.02000000000000000042	      0.07759963025341780340	      0.02000000000000000042	      0.07380109339929488699	      0.02000000000000000042	      0.07332955847123634463	      0.02000000000000000042	      0.07579889999110143994	      0.06142260958273994959	      0.06253151051930190552	      0.04491627143743474188	      0.07520009774590370732	      0.03102423522674833609	      0.06933938741528858363	      0.02831126479432542753	      0.07371005234431111941	      0.02000000000000000042	      0.06547484427247143857	      0.02000000000000000042	      0.06217654614429060644	      0.02000000000000000042	      0.06753198956558900679	      0.02000000000000000042	      0.05937130263643606437	      0.02000000000000000042	      0.07026600938848008571
      2.41195665682413373787	     10.00000027620445131049	      0.00000000131669921093	    -11.73577079406246248539	      0.65218511277027702011	      4.97071861016676841416	     -0.27623483230715123460	     -4.97071861016528249166	      0.27623483230985901304	     11.73577079406568302034	     -0.65218511276712487490	     -2.37625486185781653603	      0.13205421886803156428	     19.20405593093981266861	     -1.06721574601244295621	      8.63209097449386320022	     -0.47970613302030351566	     -8.63209097449415274639	      0.47970613302094927688	    -19.20405593094015017641	      1.06721574601161162121	      2.37625486185690570906	     -0.13205421886864163183	     71.20757103173114899164	      1.33200781973053117291	     48.49481194394292060679	     -2.69497376452564418869	    -71.20757103173178848010	     -1.33200781973091930688	      7.38328735805849589724	    -11.05757857592831783222	     22.73595036332200081119	      2.49105456295502802888	     21.82428837646845209974	     10.68218317255457172621	      0.00000000137483455310	      0.00000000000473840002	      0.00000000000974278527	      0.00000000001149108448	      0.00000010607645375501	     -0.00000000061830126073	      0.00000000042785660878	      0.00000000048315273443	      0.18304316835705378153	      0.08899032574429473208	      0.25588069238464283828	      0.08452942778226853193	      0.02200000312370289229	      0.14178252057986076573	      0.06059325500160624156	      0.06757818149868116686	      0.16880940231053001566	      0.07603699060378428520	      0.02000021151521736915	      0.08171934647774439786	      0.08835873782411787780	      0.06575553888369634059	      0.03427659640090938847	      0.14867893760089898048	      0.02000000002497136914	      0.02000000002669517427	      0.10016638646761287512	      0.02000000002730483589	      0.08188675340754247856	      0.02000000339387816850	      0.18829219021628695874	      0.02000000785461144431	      0.15963155998260086799	      0.02000000216686492055	      0.22574854340581332335	      0.02000000000924209015	      0.06773318237906097994	      0.02000000303703656362	      0.16512594678855932462	      0.02000000000651075763	      0.07947094296521960144	      0.02000000000683576154	      0.07448209317203149937	      0.02000347031647194476	      0.01241949020410911507	      0.02000000000000000042	      0.03613320990253972298	      0.03532790645730179285	      0.14496031244632448520	      0.02000000000000000042	      0.16356995573584401371	      0.16173096197413783237	      0.08731468423435229109	      0.06415239846510367716	      0.19154359770566919963	      0.05993571295033206514	      0.08582571841994297845	      0.07776945019409621518	      0.06115871952614791024	      0.08217638381887448773	      0.06324234088040382729	      0.02000000000000000042	      0.06369135309591944516	      0.02000000000000000042	      0.04540659623226210584	      0.02000000000000000042	      0.06427839599570658868	      0.11849458359323154777	      0.05278521919680340124	      0.03230874559971889937	      0.02377020315082120638	      0.02000000000000000042	      0.04883470397434058058	      0.02000000000000000042	      0.07037211645057876719	      0.02000000000000000042	      0.07193111908279575806	      0.02000000000000000042	      0.08414653356753937219	      0.02000000000000000042	      0.07374479617252592545	      0.02000000000000000042	      0.07759941858901389655	      0.02000000000000000042	      0.07380081733720418591	      0.02000000000000000042	      0.07332922480307459134	      0.02000000000000000042	      0.07579919289062102272	      0.06195725689541803360	      0.06253425063663718697	      0.04503242352712092528	      0.07520133006573347101	      0.03105183771743127638	      0.06933980669441505706	      0.02833619603929707353	      0.07371043103851991629	      0.02000000000000000042	      0.06547487859143845401	      0.02000000000000000042	      0.06217678229987467359	      0.02000000000000000042	      0.06753198956558897903	      0.02000000000000000042	      0.05937130263643602968	      0.02000000000000000042	      0.07026600938848000244
